<svg xmlns="http://www.w3.org/2000/svg" xmlns:xlink="http://www.w3.org/1999/xlink" width="267" zoomAndPan="magnify" viewBox="0 0 200.25 177.749994" height="237" preserveAspectRatio="xMidYMid meet" version="1.0"><defs><g/><clipPath id="c0c8dc0fa1"><path d="M 0 2 L 199.503906 2 L 199.503906 144.417969 L 0 144.417969 Z M 0 2 " clip-rule="nonzero"/></clipPath><clipPath id="a0eeed5a7c"><path d="M 0 46.09375 L 135.992188 46.09375 L 135.992188 92 L 0 92 Z M 0 46.09375 " clip-rule="nonzero"/></clipPath><clipPath id="892d80f4f6"><path d="M 53 86 L 65 86 L 65 98.398438 L 53 98.398438 Z M 53 86 " clip-rule="nonzero"/></clipPath><clipPath id="688eb47105"><path d="M 69 86 L 82 86 L 82 98.398438 L 69 98.398438 Z M 69 86 " clip-rule="nonzero"/></clipPath></defs><g clip-path="url(#c0c8dc0fa1)"><path fill="#4f5297" d="M 193.292969 91.070312 L 127.90625 91.070312 C 125.460938 91.070312 123.273438 92.601562 122.433594 94.902344 C 114.253906 117.355469 92.695312 132.445312 68.785156 132.445312 C 37.308594 132.445312 11.707031 106.839844 11.707031 75.363281 C 11.707031 43.890625 37.308594 18.285156 68.785156 18.285156 C 75.039062 18.285156 81.175781 19.304688 86.988281 21.257812 C 83.808594 31.09375 86.59375 42.1875 94.539062 49.3125 C 94.804688 49.613281 95.105469 49.890625 95.445312 50.136719 L 128.257812 74.234375 C 130.851562 76.140625 134.496094 75.578125 136.398438 72.988281 C 138.300781 70.394531 137.746094 66.75 135.152344 64.84375 L 103.464844 41.578125 C 98.507812 37.9375 96.441406 31.804688 97.714844 26.152344 C 98.269531 26.480469 98.816406 26.816406 99.359375 27.164062 L 105.558594 31.714844 C 106.070312 32.144531 106.570312 32.578125 107.066406 33.023438 C 107.601562 33.511719 108.207031 33.878906 108.84375 34.128906 L 140.589844 57.441406 C 143.183594 59.34375 146.828125 58.785156 148.734375 56.191406 C 150.636719 53.601562 150.078125 49.957031 147.484375 48.050781 L 112.792969 22.574219 C 110.59375 20.742188 108.292969 19.054688 105.910156 17.519531 L 104.644531 16.589844 C 109.675781 13.59375 116.230469 13.699219 121.238281 17.375 L 152.921875 40.644531 C 155.515625 42.546875 159.164062 41.988281 161.066406 39.398438 C 162.96875 36.804688 162.410156 33.160156 159.820312 31.257812 L 127.003906 7.160156 C 126.667969 6.914062 126.3125 6.707031 125.949219 6.542969 C 115.28125 0.210938 101.585938 2.136719 93.070312 11.0625 C 85.382812 8.160156 77.167969 6.636719 68.785156 6.636719 C 59.507812 6.636719 50.507812 8.453125 42.03125 12.039062 C 33.847656 15.503906 26.496094 20.457031 20.1875 26.769531 C 13.875 33.078125 8.921875 40.425781 5.460938 48.613281 C 1.875 57.089844 0.0546875 66.089844 0.0546875 75.363281 C 0.0546875 84.640625 1.875 93.640625 5.460938 102.117188 C 8.921875 110.304688 13.875 117.65625 20.1875 123.964844 C 26.496094 130.273438 33.847656 135.226562 42.03125 138.691406 C 50.507812 142.273438 59.507812 144.09375 68.785156 144.09375 C 83.167969 144.09375 96.941406 139.695312 108.617188 131.375 C 114.242188 127.371094 119.214844 122.566406 123.410156 117.082031 C 126.808594 112.636719 129.636719 107.820312 131.851562 102.71875 L 193.292969 102.71875 C 196.507812 102.71875 199.117188 100.109375 199.117188 96.894531 C 199.117188 93.679688 196.507812 91.070312 193.292969 91.070312 " fill-opacity="1" fill-rule="nonzero"/></g><path fill="#4f5297" d="M 174.832031 109.585938 L 137.855469 109.585938 C 134.851562 109.585938 132.417969 112.191406 132.417969 115.410156 C 132.417969 118.625 134.851562 121.234375 137.855469 121.234375 L 174.832031 121.234375 C 177.839844 121.234375 180.273438 118.625 180.273438 115.410156 C 180.273438 112.191406 177.839844 109.585938 174.832031 109.585938 " fill-opacity="1" fill-rule="nonzero"/><path fill="#4f5297" d="M 157.878906 127.496094 L 121.953125 127.496094 C 118.738281 127.496094 116.128906 130.101562 116.128906 133.316406 C 116.128906 136.535156 118.738281 139.140625 121.953125 139.140625 L 157.878906 139.140625 C 161.09375 139.140625 163.699219 136.535156 163.699219 133.316406 C 163.699219 130.101562 161.09375 127.496094 157.878906 127.496094 " fill-opacity="1" fill-rule="nonzero"/><g clip-path="url(#a0eeed5a7c)"><path fill="#4f5297" d="M 135.835938 89.699219 C 132.746094 91.773438 128.59375 91.9375 125.273438 89.789062 C 108.199219 78.742188 77.058594 58.597656 71.003906 54.675781 C 69.175781 53.496094 67.90625 53.398438 67.90625 53.398438 C 67.179688 53.402344 66.464844 53.613281 65.855469 54.007812 C 65.855469 54.007812 29.519531 77.511719 10.546875 89.789062 C 7.226562 91.9375 3.074219 91.773438 -0.015625 89.699219 L 66.332031 46.777344 C 67.292969 46.15625 68.527344 46.15625 69.488281 46.777344 Z M 135.835938 89.699219 " fill-opacity="1" fill-rule="evenodd"/></g><path fill="#ee9b00" d="M 64.351562 70.410156 C 58.128906 70.410156 53.085938 75.453125 53.085938 81.675781 L 64.351562 81.675781 Z M 64.351562 70.410156 " fill-opacity="1" fill-rule="evenodd"/><g clip-path="url(#892d80f4f6)"><path fill="#ee9b00" d="M 53.085938 86.878906 L 64.351562 86.878906 L 64.351562 98.144531 L 53.085938 98.144531 Z M 53.085938 86.878906 " fill-opacity="1" fill-rule="evenodd"/></g><g clip-path="url(#688eb47105)"><path fill="#ee9b00" d="M 69.984375 86.878906 L 81.25 86.878906 L 81.25 98.144531 L 69.984375 98.144531 Z M 69.984375 86.878906 " fill-opacity="1" fill-rule="evenodd"/></g><path fill="#ee9b00" d="M 69.988281 70.410156 C 76.210938 70.410156 81.253906 75.453125 81.253906 81.675781 L 69.988281 81.675781 Z M 69.988281 70.410156 " fill-opacity="1" fill-rule="evenodd"/><g fill="#000000" fill-opacity="1"><g transform="translate(30.174262, 166.379131)"><g><path d="M 6.953125 -4.828125 L 6.953125 -2.8125 L 7.140625 -0.015625 L 4.078125 -0.015625 L 4.265625 -2.8125 L 4.265625 -4.75 L 1.34375 -11.28125 L -0.171875 -13.984375 L 3.4375 -13.984375 L 4.265625 -11.28125 L 5.59375 -8.1875 L 6.921875 -11.28125 L 7.75 -13.984375 L 11.359375 -13.984375 L 9.84375 -11.28125 Z M 6.953125 -4.828125 "/></g></g></g><g fill="#000000" fill-opacity="1"><g transform="translate(41.361303, 166.379131)"><g><path d="M 10.9375 -13.984375 L 10.75 -11.28125 L 10.75 -5.1875 C 10.75 -3.289062 10.351562 -1.898438 9.5625 -1.015625 C 8.78125 -0.140625 7.554688 0.296875 5.890625 0.296875 C 4.222656 0.296875 2.992188 -0.140625 2.203125 -1.015625 C 1.421875 -1.898438 1.03125 -3.289062 1.03125 -5.1875 L 1.03125 -11.28125 L 0.84375 -13.984375 L 3.890625 -13.984375 L 3.703125 -11.28125 L 3.703125 -5.1875 C 3.703125 -4.15625 3.867188 -3.421875 4.203125 -2.984375 C 4.535156 -2.546875 5.097656 -2.328125 5.890625 -2.328125 C 6.679688 -2.328125 7.242188 -2.546875 7.578125 -2.984375 C 7.910156 -3.421875 8.078125 -4.15625 8.078125 -5.1875 L 8.078125 -11.28125 L 7.890625 -13.984375 Z M 10.9375 -13.984375 "/></g></g></g><g fill="#000000" fill-opacity="1"><g transform="translate(53.14498, 166.379131)"><g><path d="M 12.296875 -2.796875 L 12.296875 -11.78125 L 9.625 0 L 6.34375 0 L 3.640625 -11.9375 L 3.640625 -2.796875 L 3.828125 0 L 1.125 0 L 1.3125 -2.796875 L 1.3125 -11.28125 L 1.1875 -13.984375 L 5.875 -13.984375 L 8.21875 -3 L 10.5625 -13.984375 L 15.140625 -13.984375 L 15.03125 -11.28125 L 15.03125 -2.796875 L 15.234375 0 L 12.109375 0 Z M 12.296875 -2.796875 "/></g></g></g><g fill="#000000" fill-opacity="1"><g transform="translate(69.496702, 166.379131)"><g><path d="M 11.78125 0 L 7.921875 0 L 6.671875 -2.796875 L 5.875 -4.09375 L 3.984375 -4.09375 L 3.984375 -2.796875 L 4.171875 0 L 1.125 0 L 1.3125 -2.796875 L 1.3125 -11.28125 L 1.125 -13.984375 L 5.984375 -13.984375 C 7.640625 -13.984375 8.867188 -13.570312 9.671875 -12.75 C 10.472656 -11.9375 10.875 -10.707031 10.875 -9.0625 C 10.875 -8.050781 10.664062 -7.171875 10.25 -6.421875 C 9.832031 -5.679688 9.253906 -5.113281 8.515625 -4.71875 L 9.71875 -2.796875 Z M 3.984375 -6.671875 L 5.203125 -6.671875 C 6.253906 -6.671875 6.992188 -6.84375 7.421875 -7.1875 C 7.859375 -7.539062 8.078125 -8.164062 8.078125 -9.0625 C 8.078125 -9.675781 7.988281 -10.148438 7.8125 -10.484375 C 7.632812 -10.828125 7.34375 -11.066406 6.9375 -11.203125 C 6.539062 -11.335938 5.972656 -11.40625 5.234375 -11.40625 L 3.984375 -11.40625 Z M 3.984375 -6.671875 "/></g></g></g><g fill="#000000" fill-opacity="1"><g transform="translate(81.3736, 166.379131)"><g><path d="M 10.9375 -13.984375 L 10.75 -11.28125 L 10.75 -5.1875 C 10.75 -3.289062 10.351562 -1.898438 9.5625 -1.015625 C 8.78125 -0.140625 7.554688 0.296875 5.890625 0.296875 C 4.222656 0.296875 2.992188 -0.140625 2.203125 -1.015625 C 1.421875 -1.898438 1.03125 -3.289062 1.03125 -5.1875 L 1.03125 -11.28125 L 0.84375 -13.984375 L 3.890625 -13.984375 L 3.703125 -11.28125 L 3.703125 -5.1875 C 3.703125 -4.15625 3.867188 -3.421875 4.203125 -2.984375 C 4.535156 -2.546875 5.097656 -2.328125 5.890625 -2.328125 C 6.679688 -2.328125 7.242188 -2.546875 7.578125 -2.984375 C 7.910156 -3.421875 8.078125 -4.15625 8.078125 -5.1875 L 8.078125 -11.28125 L 7.890625 -13.984375 Z M 10.9375 -13.984375 "/></g></g></g><g fill="#000000" fill-opacity="1"><g transform="translate(93.157277, 166.379131)"><g><path d="M 11.21875 -2.796875 L 11.40625 0 L 7.171875 0 L 3.609375 -11.03125 L 3.609375 -2.796875 L 3.796875 0 L 1.125 0 L 1.3125 -2.796875 L 1.3125 -11.28125 L 1.125 -13.984375 L 5.375 -13.984375 L 8.90625 -3 L 8.90625 -11.28125 L 8.71875 -13.984375 L 11.40625 -13.984375 L 11.21875 -11.28125 Z M 11.21875 -2.796875 "/></g></g></g></svg>